<svg xmlns="http://www.w3.org/2000/svg" version="1.1" xmlns:xlink="http://www.w3.org/1999/xlink" xmlns:svgjs="http://svgjs.com/svgjs" width="1920" height="1080" preserveAspectRatio="none" viewBox="0 0 1920 1080"><g mask="url(&quot;#SvgjsMask1184&quot;)" fill="none"><rect width="1920" height="1080" x="0" y="0" fill="rgba(47, 33, 75, 1)"></rect><path d="M0,443.591C97.812,467.742,207.228,508.326,295.669,460.07C384.326,411.696,418.045,300.087,442.567,202.113C464.367,115.016,426.606,28.511,426.158,-61.272C425.615,-170.136,516.019,-303.374,439.658,-380.966C361.414,-460.472,221.009,-358.043,111.787,-380.712C16.261,-400.539,-52.559,-524.664,-147.654,-502.864C-241.703,-481.304,-259.877,-352.846,-324.058,-280.798C-389.477,-207.36,-491.956,-167.426,-527.984,-75.913C-567.606,24.727,-595.549,156.048,-529.875,241.986C-462.041,330.751,-319.1,294.33,-214.685,334.057C-138.046,363.216,-79.608,423.935,0,443.591" fill="#261a3c"></path><path d="M1920 1657.176C2028.153 1637.3429999999998 2136.216 1619.807 2228.001 1559.259 2319.061 1499.19 2380.5860000000002 1409.472 2437.0209999999997 1316.116 2499.99 1211.953 2592.09 1106.337 2574.619 985.88 2557.15 865.433 2419.253 807.672 2348.877 708.376 2268.135 594.454 2263.401 405.621 2131.299 360.38300000000004 2000.426 315.56600000000003 1879.942 454.124 1750.738 503.54600000000005 1634.046 548.181 1489.088 541.313 1408.561 636.836 1328.1970000000001 732.1659999999999 1327.958 871.529 1335.612 995.978 1342.2930000000001 1104.606 1419.629 1190.296 1449.046 1295.078 1485.871 1426.248 1421.696 1604.271 1529.703 1687.3139999999999 1635.287 1768.493 1789 1681.199 1920 1657.176" fill="#38285a"></path></g><defs><mask id="SvgjsMask1184"><rect width="1920" height="1080" fill="#ffffff"></rect></mask></defs></svg>